<svg width="21" height="21" viewBox="0 0 21 21" fill="none" xmlns="http://www.w3.org/2000/svg">
<path d="M20.2169 16.2157L14.0643 10.0923L20.2169 3.96883C20.2828 3.90323 20.3309 3.82628 20.3614 3.74428C20.445 3.51973 20.3968 3.25733 20.2169 3.07693L17.3104 0.184263C17.1292 0.00386565 16.8655 -0.0440722 16.6399 0.0404498C16.5575 0.0707263 16.4802 0.118664 16.4143 0.184263L10.2618 6.30769L4.10927 0.184263C4.04336 0.118664 3.96604 0.0707263 3.88365 0.0404498C3.65803 -0.0428106 3.39439 0.00386565 3.21313 0.184263L0.306721 3.07693C0.125466 3.25733 0.0773005 3.51973 0.162224 3.74428C0.192644 3.82628 0.24081 3.90323 0.306721 3.96883L6.45924 10.0923L0.306721 16.2157C0.24081 16.2813 0.192644 16.3582 0.162224 16.4402C0.078568 16.6648 0.125466 16.9272 0.306721 17.1076L3.21313 20.0002C3.39439 20.1806 3.65803 20.2286 3.88365 20.1441C3.96604 20.1138 4.04336 20.0658 4.10927 20.0002L10.2618 13.8768L16.4143 20.0002C16.4802 20.0658 16.5575 20.1138 16.6399 20.1441C16.8655 20.2273 17.1292 20.1806 17.3104 20.0002L20.2169 17.1076C20.3981 16.9272 20.4463 16.6648 20.3614 16.4402C20.3309 16.3582 20.2828 16.2813 20.2169 16.2157Z" fill="white"/>
</svg>
