<svg width="548" height="398" viewBox="0 0 548 398" fill="none" xmlns="http://www.w3.org/2000/svg">
<g clip-path="url(#clip0_1_13)">
<path d="M189.883 387.614L195.266 389.15L204.049 370.103L196.103 367.837L189.883 387.614Z" fill="#FFB8B8"/>
<path d="M189.036 385.548L199.639 388.573C201.431 389.084 202.936 390.252 203.824 391.821C204.712 393.389 204.909 395.229 204.372 396.935L204.306 397.144L186.946 392.192L189.036 385.548Z" fill="#2F2E41"/>
<path d="M241.047 391.803L246.324 389.961L241.373 369.701L233.585 372.42L241.047 391.803Z" fill="#FFB8B8"/>
<path d="M239.07 390.632L249.462 387.004C251.218 386.391 253.159 386.467 254.856 387.216C256.553 387.965 257.869 389.326 258.513 390.998L258.592 391.203L241.577 397.144L239.07 390.632Z" fill="#2F2E41"/>
<path d="M198.91 353.135L189.741 381.95L200.743 385.006L211.287 358.374L198.91 353.135Z" fill="#2F2E41"/>
<path d="M227.791 359.684L236.043 386.752L247.503 381.513L239.252 356.191L227.791 359.684Z" fill="#2F2E41"/>
<path d="M223.496 364.566C216.158 364.534 208.836 363.891 201.615 362.644L201.431 362.608V355.95L197.241 355.506L200.512 344.382C198.987 327.244 201.153 305.541 201.854 299.294C202.015 297.829 202.12 297.007 202.12 297.007L205.798 267.24L211.95 261.831L214.746 263.563L219.93 268.501C225.957 282.626 230.74 295.924 230.77 296.779L250.981 358.46L250.845 358.552C243.827 363.27 233.129 364.566 223.496 364.566Z" fill="#3F3D56"/>
<path opacity="0.2" d="M208.405 280.443L206.992 288.844L216.559 292.602L208.405 280.443Z" fill="black"/>
<path d="M227.178 261.787H205.058C204.603 261.787 204.167 261.614 203.845 261.308C203.524 261.002 203.343 260.586 203.342 260.153V251.073C203.349 247.85 204.698 244.761 207.093 242.485C209.488 240.208 212.734 238.929 216.118 238.929C219.502 238.929 222.748 240.208 225.143 242.485C227.539 244.761 228.888 247.85 228.894 251.073V260.153C228.894 260.586 228.713 261.002 228.391 261.308C228.069 261.614 227.633 261.787 227.178 261.787Z" fill="#2F2E41"/>
<path d="M218.56 261.24C223.734 261.24 227.927 257.246 227.927 252.32C227.927 247.393 223.734 243.399 218.56 243.399C213.387 243.399 209.193 247.393 209.193 252.32C209.193 257.246 213.387 261.24 218.56 261.24Z" fill="#FFB8B8"/>
<path d="M231.917 251.981H218.391L218.252 250.131L217.559 251.981H215.476L215.201 248.315L213.827 251.981H209.797V251.799C209.8 249.247 210.866 246.801 212.76 244.996C214.655 243.192 217.224 242.177 219.903 242.174H221.81C224.49 242.177 227.059 243.192 228.953 244.996C230.848 246.801 231.914 249.247 231.917 251.799V251.981Z" fill="#2F2E41"/>
<path d="M218.28 263.482C218.179 263.482 218.077 263.474 217.977 263.457L208.073 261.792V246.204H218.975L218.705 246.504C214.95 250.675 217.779 257.438 219.8 261.099C219.949 261.367 220.015 261.669 219.991 261.972C219.968 262.274 219.855 262.564 219.665 262.808C219.507 263.017 219.299 263.187 219.058 263.304C218.817 263.421 218.551 263.482 218.28 263.482Z" fill="#2F2E41"/>
<path d="M235.756 301.161H230.327C230.153 301.162 229.985 301.1 229.856 300.989C229.727 300.877 229.646 300.724 229.63 300.559L228.543 289.951H237.54L236.454 300.559C236.437 300.724 236.357 300.877 236.228 300.989C236.099 301.1 235.931 301.162 235.756 301.161Z" fill="#334756"/>
<path d="M237.526 291.286H228.558C228.372 291.286 228.194 291.215 228.063 291.09C227.931 290.965 227.857 290.795 227.857 290.619V289.017C227.857 288.84 227.931 288.671 228.063 288.545C228.194 288.42 228.372 288.35 228.558 288.35H237.526C237.712 288.35 237.89 288.42 238.021 288.545C238.153 288.671 238.226 288.84 238.227 289.017V290.619C238.226 290.795 238.153 290.965 238.021 291.09C237.89 291.215 237.712 291.286 237.526 291.286Z" fill="#2F2E41"/>
<path opacity="0.2" d="M202.348 296.597C204.841 299.346 208.223 301.228 211.961 301.948C215.7 302.668 219.583 302.184 223.002 300.573L225.04 299.612L202.348 296.597Z" fill="black"/>
<path d="M234.943 294.543C234.525 294.096 234.009 293.742 233.432 293.505C232.855 293.269 232.23 293.155 231.602 293.173C230.974 293.191 230.358 293.34 229.797 293.61C229.235 293.879 228.743 294.263 228.354 294.733L218.897 292.204L215.881 297.303L229.29 300.695C230.163 301.265 231.225 301.51 232.275 301.383C233.324 301.257 234.289 300.769 234.986 300.01C235.683 299.252 236.063 298.277 236.055 297.269C236.047 296.262 235.652 295.292 234.943 294.543Z" fill="#FFB8B8"/>
<path d="M212.374 300.202C207.877 300.202 201.793 297.691 194.571 292.828C194.168 292.563 193.828 292.22 193.572 291.823C193.315 291.426 193.148 290.982 193.081 290.52C192.549 287.306 195.841 282.96 196.164 282.544L199.624 273.493C199.664 273.346 200.78 269.43 203.58 268.036C204.169 267.748 204.817 267.585 205.479 267.558C206.141 267.532 206.801 267.642 207.414 267.881C212.748 269.73 208.583 284.012 208.011 285.885L215.077 289.053L219.565 291.776L225.71 292.389L224.041 299.742L214.709 299.942C213.945 300.12 213.16 300.207 212.374 300.202Z" fill="#3F3D56"/>
<path d="M547.799 233.12C547.794 224.527 545.783 216.042 541.909 208.281C538.036 200.52 532.398 193.677 525.405 188.247C518.412 182.817 510.237 178.937 501.475 176.887C492.712 174.837 483.58 174.67 474.741 176.396C465.902 178.123 457.577 181.7 450.369 186.869C443.161 192.038 437.251 198.67 433.066 206.283C428.882 213.896 426.528 222.3 426.176 230.887C425.823 239.474 427.48 248.027 431.028 255.928C430.968 255.865 430.907 255.804 430.848 255.741C433.55 261.739 437.296 267.259 441.928 272.069C441.941 272.084 441.956 272.098 441.97 272.112C442.343 272.5 442.719 272.886 443.104 273.264C448.663 278.786 455.319 283.201 462.685 286.254C470.05 289.306 477.979 290.934 486.011 291.044L483.956 397.378H490.307L489.021 327.196L498.208 322.59L496.807 320.055L488.963 323.988L488.359 291.039C504.248 290.692 519.363 284.438 530.471 273.613C541.579 262.789 547.799 248.255 547.799 233.12Z" fill="#E6E6E6"/>
<path d="M367.238 204.882C367.233 194.812 364.875 184.868 360.336 175.773C355.797 166.678 349.19 158.658 340.994 152.295C332.799 145.931 323.219 141.384 312.95 138.982C302.681 136.58 291.98 136.383 281.621 138.407C271.262 140.43 261.506 144.622 253.059 150.68C244.612 156.738 237.685 164.509 232.781 173.431C227.878 182.353 225.119 192.203 224.706 202.265C224.293 212.328 226.236 222.352 230.393 231.612C230.323 231.538 230.251 231.466 230.182 231.392C233.348 238.421 237.738 244.89 243.166 250.527C243.183 250.544 243.199 250.561 243.216 250.578C243.653 251.032 244.094 251.484 244.545 251.927C251.06 258.399 258.86 263.573 267.492 267.15C276.124 270.727 285.416 272.635 294.829 272.764L292.42 397.378H299.862L298.356 315.131L309.122 309.733L307.48 306.762L298.287 311.371L297.58 272.758C316.2 272.352 333.913 265.022 346.931 252.337C359.949 239.652 367.238 222.619 367.238 204.882Z" fill="#E6E6E6"/>
<path d="M162.462 178.321C162.455 166.861 159.772 155.546 154.607 145.196C149.441 134.846 141.923 125.719 132.596 118.478C123.27 111.237 112.369 106.062 100.683 103.328C88.9966 100.595 76.8184 100.371 65.0305 102.674C53.2426 104.976 42.1401 109.747 32.5274 116.641C22.9147 123.535 15.0326 132.378 9.45222 142.531C3.8718 152.684 0.732804 163.893 0.262664 175.344C-0.207476 186.795 2.00302 198.202 6.73398 208.739C6.65465 208.655 6.57267 208.573 6.49372 208.489C10.0973 216.488 15.0929 223.85 21.27 230.265C21.2884 230.284 21.3074 230.303 21.3259 230.322C21.8243 230.839 22.3255 231.354 22.8384 231.858C30.2523 239.222 39.1285 245.111 48.9516 249.181C58.7747 253.252 69.349 255.423 80.0606 255.57L77.3192 397.378H85.7889L84.0747 303.783L96.3264 297.64L94.4575 294.259L83.9964 299.504L83.1916 255.563C104.381 255.1 124.538 246.759 139.353 232.324C154.167 217.889 162.461 198.506 162.462 178.321Z" fill="#E6E6E6"/>
<path d="M466.964 101.057C496.266 101.057 520.021 78.4348 520.021 50.5286C520.021 22.6224 496.266 0 466.964 0C437.661 0 413.906 22.6224 413.906 50.5286C413.906 78.4348 437.661 101.057 466.964 101.057Z" fill="#FF6584"/>
<path d="M151.539 211.533C210.267 211.533 257.875 166.193 257.875 110.264C257.875 54.3343 210.267 8.99463 151.539 8.99463C92.8105 8.99463 45.2021 54.3343 45.2021 110.264C45.2021 166.193 92.8105 211.533 151.539 211.533Z" fill="#334756"/>
<path opacity="0.2" d="M73.0231 42.6239C63.1043 64.72 61.7587 89.4551 69.2269 112.409C76.695 135.363 92.4903 155.04 113.79 167.924C135.09 180.808 160.506 186.06 185.497 182.741C210.489 179.421 233.426 167.747 250.211 149.804C244.152 163.304 235.083 175.388 223.634 185.218C212.184 195.049 198.627 202.392 183.901 206.737C169.176 211.083 153.635 212.327 138.354 210.385C123.074 208.443 108.419 203.36 95.4064 195.488C82.3934 187.617 71.333 177.145 62.9915 164.798C54.65 152.452 49.2267 138.526 47.0976 123.985C44.9685 109.445 46.1843 94.6369 50.6609 80.5881C55.1375 66.5394 62.7678 53.5855 73.0231 42.6239Z" fill="black"/>
<path d="M151.831 110.263H152.123L157.382 397.378H146.28L151.831 110.263Z" fill="#3F3D56"/>
<path d="M168.743 262.222L151.165 271.035L153.615 275.466L171.193 266.653L168.743 262.222Z" fill="#3F3D56"/>
<path d="M314.184 394.692C314.184 394.692 314.567 387.036 322.432 387.926Z" fill="#3F3D56"/>
<path d="M311.961 387.407C314.135 387.407 315.898 385.728 315.898 383.658C315.898 381.587 314.135 379.909 311.961 379.909C309.787 379.909 308.025 381.587 308.025 383.658C308.025 385.728 309.787 387.407 311.961 387.407Z" fill="#334756"/>
<path d="M312.432 389.97H311.321V397.378H312.432V389.97Z" fill="#3F3D56"/>
<path d="M41.398 393.634C41.398 393.634 41.7817 385.978 49.6467 386.868Z" fill="#3F3D56"/>
<path d="M39.1757 386.348C41.3497 386.348 43.1121 384.67 43.1121 382.6C43.1121 380.529 41.3497 378.851 39.1757 378.851C37.0017 378.851 35.2393 380.529 35.2393 382.6C35.2393 384.67 37.0017 386.348 39.1757 386.348Z" fill="#334756"/>
<path d="M39.6464 388.912H38.5352V396.32H39.6464V388.912Z" fill="#3F3D56"/>
<path d="M105.844 394.163C105.844 394.163 106.228 386.507 114.093 387.397Z" fill="#3F3D56"/>
<path d="M103.622 386.877C105.796 386.877 107.558 385.199 107.558 383.129C107.558 381.058 105.796 379.38 103.622 379.38C101.448 379.38 99.6857 381.058 99.6857 383.129C99.6857 385.199 101.448 386.877 103.622 386.877Z" fill="#334756"/>
<path d="M104.093 389.441H102.982V396.849H104.093V389.441Z" fill="#3F3D56"/>
<path d="M277.236 48.9552L285.132 42.9409C278.998 42.2965 276.477 45.4824 275.446 48.004C270.654 46.109 265.437 48.5926 265.437 48.5926L281.235 54.0546C280.438 52.0272 279.051 50.2583 277.236 48.9552Z" fill="#3F3D56"/>
<path d="M397.317 110.219L405.213 104.204C399.079 103.56 396.558 106.746 395.527 109.267C390.735 107.372 385.518 109.856 385.518 109.856L401.316 115.318C400.519 113.291 399.132 111.522 397.317 110.219Z" fill="#3F3D56"/>
<path d="M267.801 162.497L275.697 156.483C269.563 155.838 267.042 159.024 266.011 161.546C261.219 159.651 256.002 162.134 256.002 162.134L271.8 167.596C271.003 165.569 269.616 163.8 267.801 162.497Z" fill="#3F3D56"/>
<path d="M421.895 397.471C421.895 397.471 422.279 389.815 430.144 390.705Z" fill="#3F3D56"/>
<path d="M348.004 397.471C348.004 397.471 348.388 389.815 356.253 390.705Z" fill="#3F3D56"/>
<path d="M78.552 397.471C78.552 397.471 78.9357 389.815 86.8007 390.705Z" fill="#3F3D56"/>
<path d="M455.23 397.471C455.23 397.471 455.613 389.815 463.478 390.705Z" fill="#3F3D56"/>
<path d="M439.674 397.471C439.674 397.471 440.057 389.815 447.922 390.705Z" fill="#3F3D56"/>
<path d="M407.584 397.471C407.584 397.471 407.201 389.815 399.336 390.705Z" fill="#3F3D56"/>
<path d="M279.803 397.471C279.803 397.471 279.419 389.815 271.554 390.705Z" fill="#3F3D56"/>
<path d="M173.689 397.471C173.689 397.471 173.305 389.815 165.44 390.705Z" fill="#3F3D56"/>
<path d="M60.9075 397.471C60.9075 397.471 60.5239 389.815 52.6589 390.705Z" fill="#3F3D56"/>
<path d="M488.698 397.471C488.698 397.471 488.314 389.815 480.449 390.705Z" fill="#3F3D56"/>
<path d="M440.919 398C440.919 398 440.535 390.344 432.67 391.234Z" fill="#3F3D56"/>
<path d="M548 396.47H0V397.645H548V396.47Z" fill="#3F3D56"/>
</g>
<defs>
<clipPath id="clip0_1_13">
<rect width="548" height="398" fill="white"/>
</clipPath>
</defs>
</svg>
