<svg width="37" height="25" viewBox="0 0 37 25" fill="none" xmlns="http://www.w3.org/2000/svg">
<path d="M34.4506 6.25H33.8958V3.90625C33.8958 1.71875 27.0164 0 18.3616 0C9.70678 0 2.82733 1.71875 2.82733 3.90625V6.25H2.27254C1.35366 6.25 0.608154 6.77441 0.608154 7.42188V11.3281C0.608154 11.9751 1.35366 12.5 2.27254 12.5H2.82733V20.3125C2.82733 21.1753 3.82111 21.875 5.04651 21.875V23.4375C5.04651 24.3003 6.04028 25 7.26569 25H9.48486C10.7103 25 11.704 24.3003 11.704 23.4375V21.875H25.0191V23.4375C25.0191 24.3003 26.0129 25 27.2383 25H29.4575C30.6829 25 31.6766 24.3003 31.6766 23.4375V21.875H32.1205C33.2301 21.875 33.8958 21.25 33.8958 20.625V12.5H34.4506C35.3695 12.5 36.115 11.9751 36.115 11.3281V7.42188C36.115 6.77441 35.3695 6.25 34.4506 6.25ZM11.704 3.51562C11.704 3.2998 11.9523 3.125 12.2588 3.125H24.4643C24.7708 3.125 25.0191 3.2998 25.0191 3.51562V4.29688C25.0191 4.5127 24.7708 4.6875 24.4643 4.6875H12.2588C11.9523 4.6875 11.704 4.5127 11.704 4.29688V3.51562ZM8.37527 19.5312C7.14987 19.5312 6.1561 18.8315 6.1561 17.9688C6.1561 17.106 7.14987 16.4062 8.37527 16.4062C9.60068 16.4062 10.5945 17.106 10.5945 17.9688C10.5945 18.8315 9.60068 19.5312 8.37527 19.5312ZM17.252 14.0625H9.48486C8.25946 14.0625 7.26569 13.3628 7.26569 12.5V7.8125C7.26569 6.94971 8.25946 6.25 9.48486 6.25H17.252V14.0625ZM19.4712 14.0625V6.25H27.2383C28.4637 6.25 29.4575 6.94971 29.4575 7.8125V12.5C29.4575 13.3628 28.4637 14.0625 27.2383 14.0625H19.4712ZM28.3479 19.5312C27.1225 19.5312 26.1287 18.8315 26.1287 17.9688C26.1287 17.106 27.1225 16.4062 28.3479 16.4062C29.5733 16.4062 30.567 17.106 30.567 17.9688C30.567 18.8315 29.5733 19.5312 28.3479 19.5312Z" fill="#334756"/>
</svg>
