<svg width="15" height="14" viewBox="0 0 15 14" fill="none" xmlns="http://www.w3.org/2000/svg">
<path d="M6.6956 0.937715L7.37528 0.226013C7.66307 -0.0753378 8.12843 -0.0753378 8.41315 0.226013L14.3649 6.455C14.6527 6.75635 14.6527 7.24365 14.3649 7.54179L8.41315 13.774C8.12537 14.0753 7.66 14.0753 7.37528 13.774L6.6956 13.0623C6.40475 12.7577 6.41088 12.2608 6.70785 11.9627L10.3971 8.28235H1.59806C1.19087 8.28235 0.863281 7.93932 0.863281 7.51294V6.48706C0.863281 6.06068 1.19087 5.71766 1.59806 5.71766H10.3971L6.70785 2.03733C6.40781 1.73918 6.40169 1.24227 6.6956 0.937715Z" fill="white"/>
</svg>
