<svg width="25" height="26" viewBox="0 0 25 26" fill="none" xmlns="http://www.w3.org/2000/svg">
<path d="M20.3125 24.8657H16.2109C15.8887 24.8657 15.625 24.516 15.625 24.0887V21.4985C15.625 21.0711 15.8887 20.7214 16.2109 20.7214H20.3125C21.1768 20.7214 21.875 19.7954 21.875 18.6493V6.21643C21.875 5.07028 21.1768 4.14429 20.3125 4.14429H16.2109C15.8887 4.14429 15.625 3.79461 15.625 3.36723V0.777054C15.625 0.349674 15.8887 0 16.2109 0H20.3125C22.9004 0 25 2.78444 25 6.21643V18.6493C25 22.0813 22.9004 24.8657 20.3125 24.8657ZM18.0176 11.8501L9.81445 0.971317C9.08203 0 7.8125 0.679922 7.8125 2.07214V8.28857H1.17188C0.522461 8.28857 0 8.98145 0 9.84268V16.0591C0 16.9203 0.522461 17.6132 1.17188 17.6132H7.8125V23.8297C7.8125 25.2219 9.08203 25.9018 9.81445 24.9305L18.0176 14.0517C18.4717 13.443 18.4717 12.4588 18.0176 11.8501Z" fill="white"/>
</svg>
