<svg width="25" height="26" viewBox="0 0 25 26" fill="none" xmlns="http://www.w3.org/2000/svg">
<path d="M24.66 22.4787L19.7915 17.4163C19.5717 17.1878 19.2739 17.0608 18.9613 17.0608H18.1654C19.5131 15.2684 20.314 13.014 20.314 10.5615C20.314 4.72727 15.7678 0 10.157 0C4.54623 0 0 4.72727 0 10.5615C0 16.3957 4.54623 21.1229 10.157 21.1229C12.5156 21.1229 14.6837 20.2902 16.4075 18.8888V19.7164C16.4075 20.0414 16.5295 20.3511 16.7493 20.5796L21.6178 25.642C22.0768 26.1193 22.8191 26.1193 23.2732 25.642L24.6551 24.2051C25.1141 23.7278 25.1141 22.956 24.66 22.4787ZM10.157 17.0608C6.70459 17.0608 3.90654 14.1564 3.90654 10.5615C3.90654 6.97159 6.69971 4.0621 10.157 4.0621C13.6094 4.0621 16.4075 6.96651 16.4075 10.5615C16.4075 14.1514 13.6143 17.0608 10.157 17.0608Z" fill="white"/>
</svg>
