<svg width="28" height="27" viewBox="0 0 28 27" fill="none" xmlns="http://www.w3.org/2000/svg">
<path d="M15.7492 8.4375L19.2495 11.8125L12.249 18.5625L8.7488 15.1875L15.7492 8.4375ZM27.3857 7.84519L25.3748 5.90625L24.4998 6.75C24.0518 7.182 23.4322 7.44863 22.7497 7.44863C21.3828 7.44863 20.275 6.38044 20.275 5.0625C20.275 4.40269 20.5515 3.807 21.0013 3.375L21.8764 2.53125L19.8655 0.592313C19.0464 -0.197437 17.7041 -0.197437 16.8851 0.592313L0.614288 16.281C-0.204763 17.0708 -0.204763 18.3651 0.614288 19.1548L2.62516 21.0938L3.49847 20.2517C3.9465 19.8197 4.56604 19.5514 5.25033 19.5514C6.61716 19.5514 7.72498 20.6196 7.72498 21.9375C7.72498 22.5973 7.44847 23.193 6.99869 23.625L6.12363 24.4688L8.13451 26.4077C8.95356 27.1974 10.2941 27.1974 11.1149 26.4077L27.3857 10.719C28.2048 9.92925 28.2048 8.63494 27.3857 7.84519ZM12.249 21.9375L5.24858 15.1875L15.7492 5.0625L22.7497 11.8125L12.249 21.9375Z" fill="white"/>
</svg>
